<svg width="58" height="58" viewBox="0 0 58 58" fill="none" xmlns="http://www.w3.org/2000/svg">
<path id="&#226;&#128;&#157;" d="M0 56.56L1.212 46.7294C4.80311 46.9987 7.40667 46.2805 9.02267 44.5747C10.6387 42.8689 11.6262 40.5796 11.9853 37.7067C12.3444 34.8338 12.4342 31.7365 12.2547 28.4147H0V0H23.028V33.8013C23.028 42.0609 20.9182 48.2556 16.6987 52.3853C12.5689 56.5151 7.00267 57.9067 0 56.56ZM34.2053 56.56L35.4173 46.7294C39.0084 46.9987 41.612 46.2805 43.228 44.5747C44.844 42.8689 45.8316 40.5796 46.1907 37.7067C46.5498 34.8338 46.6396 31.7365 46.46 28.4147H34.2053V0H57.2333V33.8013C57.2333 42.0609 55.1236 48.2556 50.904 52.3853C46.7742 56.5151 41.208 57.9067 34.2053 56.56Z" fill="white"/>
</svg>
