<svg width="58" height="58" viewBox="0 0 58 58" fill="none" xmlns="http://www.w3.org/2000/svg">
<path id="&#226;&#128;&#157;" d="M58 1.30211L56.788 11.1328C53.1969 10.8634 50.5933 11.5817 48.9773 13.2874C47.3613 14.9932 46.3738 17.2826 46.0147 20.1554C45.6556 23.0283 45.5658 26.1257 45.7453 29.4474L58 29.4474L58 57.8621L34.972 57.8621L34.972 24.0608C34.972 15.8012 37.0818 9.60656 41.3013 5.47678C45.4311 1.347 50.9973 -0.0445563 58 1.30211ZM23.7947 1.30211L22.5827 11.1328C18.9916 10.8634 16.388 11.5817 14.772 13.2874C13.156 14.9932 12.1684 17.2826 11.8093 20.1554C11.4502 23.0283 11.3604 26.1257 11.54 29.4474L23.7947 29.4474L23.7947 57.8621L0.766663 57.8621L0.766666 24.0608C0.766666 15.8012 2.87644 9.60655 7.096 5.47678C11.2258 1.347 16.792 -0.0445593 23.7947 1.30211Z" fill="white"/>
</svg>
